<?xml version="1.0" standalone="no"?>
<!DOCTYPE svg PUBLIC "-//W3C//DTD SVG 20010904//EN"
 "http://www.w3.org/TR/2001/REC-SVG-20010904/DTD/svg10.dtd">
<svg version="1.0" xmlns="http://www.w3.org/2000/svg"
 width="1109.000000pt" height="1280.000000pt" viewBox="0 0 1109.000000 1280.000000"
 preserveAspectRatio="xMidYMid meet">
<metadata>
Created by potrace 1.15, written by Peter Selinger 2001-2017
</metadata>
<g transform="translate(0.000000,1280.000000) scale(0.100000,-0.100000)"
fill="#000000" stroke="none">
<path d="M2774 11201 l-2769 -1598 0 -3203 0 -3203 990 -571 c545 -314 1788
-1032 2764 -1595 976 -564 1780 -1024 1786 -1024 6 0 810 460 1786 1024 976
563 2220 1281 2764 1595 l990 571 0 3203 0 3203 -2735 1579 c-1504 868 -2751
1588 -2771 1598 l-36 19 -2769 -1598z m4912 -201 c1165 -673 2298 -1326 2517
-1452 l397 -230 0 -2918 0 -2917 -442 -256 c-244 -140 -1068 -616 -1833 -1057
-764 -442 -1702 -982 -2083 -1202 -381 -220 -699 -398 -706 -395 -13 5 -440
252 -3724 2146 l-1322 764 0 2917 0 2918 443 256 c243 140 1378 795 2522 1456
1144 660 2087 1199 2096 1197 9 -3 969 -555 2135 -1227z"/>

</g>
</svg>
